<svg xmlns="http://www.w3.org/2000/svg" version="1.0" preserveAspectRatio="xMidYMid meet" viewBox="0 1000 4500 4560">

<g transform="translate(0.000000,5000.000000) scale(0.100000,-0.10000)" fill="#000000" stroke="none">
<path d="M7047 20568 c-3 -4580 -2 -4472 -43 -4768 -57 -414 -170 -773 -322 -1024 -23 -37 -42 -70 -42 -72 0 -3 -5 -10 -10 -17 -6 -7 -39 -50 -74 -97 -261 -351 -640 -574 -1121 -659 -500 -89 -1052 -29 -1552 170 -170 67 -429 206 -613 328 -87 57 -339 244 -375 277 -11 11 -36 32 -55 48 -158 130 -462 423 -659 636 l-41 45 -26 -30 c-15 -16 -48 -53 -73 -81 -25 -28 -116 -129 -201 -225 -85 -96 -184 -206 -220 -244 -118 -128 -150 -164 -191 -212 -23 -26 -64 -73 -93 -103 -28 -30 -66 -73 -85 -95 -19 -22 -71 -80 -116 -130 -45 -49 -128 -142 -185 -205 -56 -63 -137 -153 -180 -200 -42 -47 -142 -158 -221 -246 -79 -89 -235 -263 -346 -386 l-201 -225 41 -49 c41 -49 79 -91 212 -234 158 -171 424 -425 565 -540 30 -25 61 -51 70 -59 29 -28 196 -158 290 -227 664 -487 1422 -834 2230 -1023 248 -58 325 -72 595 -111 546 -79 1251 -92 1845 -34 335 32 753 106 1020 179 30 8 88 24 128 34 350 95 801 281 1107 456 55 32 116 66 135 77 92 52 359 237 475 331 827 664 1375 1583 1640 2752 65 288 110 582 147 965 l22 225 3 4598 3 4597 -1740 0 -1740 0 -3 -4422z"/>
<path d="M31043 21038 c3 -2879 7 -3995 15 -4108 54 -715 120 -1161 253 -1700 76 -306 241 -801 340 -1018 16 -34 29 -64 29 -66 0 -2 18 -44 41 -93 202 -436 434 -815 718 -1173 41 -52 89 -110 106 -129 16 -19 55 -61 85 -95 98 -110 253 -266 365 -368 61 -54 121 -110 135 -122 134 -125 495 -380 750 -531 125 -74 534 -284 615 -315 28 -10 88 -35 135 -55 116 -50 222 -89 375 -140 208 -70 279 -91 465 -139 492 -128 915 -196 1525 -247 206 -17 1038 -23 1290 -10 1058 57 1965 262 2782 627 141 63 367 177 464 234 27 17 52 30 54 30 7 0 221 133 325 203 391 260 788 617 1105 992 62 73 73 87 171 215 74 97 263 378 336 500 247 414 464 912 613 1405 15 50 36 117 46 150 42 138 123 486 164 710 83 448 134 920 155 1440 6 156 10 1661 10 4003 l0 3752 -1700 0 -1700 0 0 -3848 c0 -2625 -3 -3899 -11 -4008 -43 -648 -182 -1209 -413 -1674 -48 -97 -200 -358 -215 -370 -4 -3 -28 -36 -55 -73 -116 -165 -315 -370 -503 -520 -415 -330 -943 -536 -1583 -618 -208 -26 -686 -37 -895 -20 -947 78 -1660 417 -2171 1031 -485 582 -753 1372 -814 2395 -6 109 -10 1532 -10 3938 l0 3767 -1700 0 -1701 0 4 -3952z"/>
<path d="M13060 22947 l0 -2034 43 -39 c23 -22 83 -74 132 -116 278 -237 406 -347 460 -393 33 -29 159 -137 280 -240 121 -104 247 -212 280 -240 89 -77 415 -356 455 -389 19 -16 64 -55 100 -86 69 -61 401 -345 460 -394 19 -16 64 -55 100 -86 36 -32 146 -127 245 -211 221 -188 282 -240 318 -273 16 -13 47 -40 69 -58 23 -18 46 -38 52 -43 6 -6 103 -90 216 -186 113 -96 212 -182 220 -190 8 -8 35 -30 60 -50 25 -20 56 -47 70 -59 14 -12 79 -68 144 -124 66 -55 156 -133 200 -171 45 -39 110 -95 146 -125 36 -30 70 -60 77 -66 6 -6 67 -58 134 -115 68 -57 159 -136 203 -174 45 -39 110 -95 146 -125 36 -30 67 -57 70 -60 7 -8 197 -170 300 -257 47 -39 94 -80 105 -90 12 -10 50 -43 85 -73 36 -30 67 -57 70 -60 3 -4 82 -71 175 -150 205 -174 378 -322 385 -330 3 -4 111 -96 240 -205 129 -110 271 -231 315 -270 68 -60 531 -457 659 -565 22 -19 151 -129 285 -245 135 -115 284 -243 333 -284 48 -40 88 -78 88 -82 0 -5 -1682 -9 -3860 -9 l-3860 0 0 -1675 0 -1675 7725 0 7725 0 0 1675 0 1675 -3854 0 c-2120 0 -3857 3 -3860 8 -2 4 86 85 197 179 111 95 319 272 462 395 143 123 373 319 510 437 138 117 295 252 350 300 55 48 195 168 310 266 116 98 239 204 275 235 72 63 235 203 411 352 63 53 123 105 134 115 11 10 49 43 85 73 35 30 73 63 85 73 11 10 58 51 105 90 92 78 200 170 295 252 230 199 282 243 314 270 36 29 216 183 276 236 17 15 129 111 250 214 121 104 247 212 280 241 33 29 74 63 90 75 17 13 48 40 70 60 22 20 56 50 75 65 36 30 317 271 336 289 6 5 29 25 52 43 22 18 53 45 69 58 36 33 97 85 318 273 99 84 209 179 245 211 36 31 81 70 100 86 51 42 384 328 460 394 36 31 81 70 100 86 40 33 366 312 455 389 33 28 159 136 280 240 121 103 247 211 280 240 33 29 110 95 171 146 61 52 147 126 192 164 l82 70 0 2039 c0 1906 -1 2038 -17 2025 -61 -50 -830 -708 -968 -828 -55 -48 -208 -179 -340 -291 -132 -112 -242 -207 -245 -210 -7 -8 -182 -158 -385 -330 -93 -79 -172 -146 -175 -150 -3 -3 -34 -30 -70 -60 -35 -30 -73 -63 -85 -73 -11 -10 -58 -51 -105 -90 -109 -92 -294 -250 -300 -257 -3 -3 -34 -30 -70 -60 -35 -30 -80 -69 -100 -87 -19 -17 -69 -59 -110 -94 -88 -73 -273 -231 -280 -239 -3 -3 -34 -30 -70 -60 -36 -30 -101 -86 -146 -125 -44 -38 -135 -117 -203 -174 -67 -57 -128 -109 -134 -115 -7 -6 -41 -36 -77 -66 -36 -30 -101 -86 -146 -125 -44 -38 -139 -119 -210 -180 -71 -60 -142 -122 -159 -136 -16 -15 -129 -111 -250 -214 -121 -104 -247 -212 -280 -241 -33 -29 -73 -63 -90 -75 -16 -13 -37 -30 -45 -38 -8 -8 -107 -94 -220 -190 -113 -96 -210 -180 -216 -186 -6 -5 -29 -25 -52 -43 -22 -18 -53 -45 -69 -58 -15 -14 -53 -46 -83 -72 -106 -91 -345 -297 -356 -307 -6 -5 -29 -25 -52 -43 -22 -18 -53 -45 -69 -58 -36 -33 -97 -85 -318 -273 -99 -84 -209 -179 -245 -211 -36 -31 -81 -70 -100 -86 -59 -49 -391 -333 -460 -394 -36 -31 -81 -70 -100 -86 -19 -16 -100 -84 -178 -152 -128 -110 -146 -122 -160 -109 -10 7 -48 40 -87 72 -38 32 -99 84 -135 115 -81 71 -413 355 -460 394 -19 16 -64 55 -100 86 -64 57 -393 338 -460 394 -19 16 -64 55 -100 86 -36 32 -146 127 -245 211 -221 188 -282 240 -318 273 -16 13 -47 40 -69 58 -23 18 -46 38 -52 43 -19 18 -300 259 -336 289 -19 15 -53 45 -75 65 -22 20 -61 53 -87 74 -26 21 -53 43 -60 50 -7 7 -105 92 -218 188 -113 96 -212 182 -220 190 -8 8 -35 30 -60 50 -25 20 -56 47 -70 59 -14 12 -79 68 -144 124 -66 55 -156 133 -200 171 -45 39 -110 95 -146 125 -36 30 -70 60 -77 66 -6 6 -67 58 -134 115 -68 57 -159 136 -203 174 -45 39 -110 95 -146 125 -36 30 -70 60 -77 66 -6 6 -67 58 -134 115 -68 57 -159 136 -203 174 -45 39 -110 95 -146 125 -36 30 -67 57 -70 60 -7 8 -197 170 -300 257 -47 39 -94 80 -105 90 -12 10 -50 43 -85 73 -36 30 -74 63 -85 73 -11 10 -71 62 -134 115 -197 168 -345 294 -381 326 -19 18 -111 97 -205 176 -93 79 -233 199 -310 265 -76 66 -234 201 -350 299 -115 99 -255 219 -310 267 -177 154 -606 519 -611 519 -2 0 -4 -915 -4 -2033z"/>
</g>
</svg>