<?xml version="1.0" encoding="UTF-8" standalone="no"?>
<!-- Created with Inkscape (http://www.inkscape.org/) -->
<svg
   xmlns:svg="http://www.w3.org/2000/svg"
   xmlns="http://www.w3.org/2000/svg"
   version="1.0"
   width="600"
   height="95"
   id="svg2"
   xml:space="preserve"><defs
     id="defs5" /><g
     transform="matrix(1.25,0,0,-1.25,-85.3175,208.42905)"
     id="g11"><path
       d="M 248.41317,92.867352 L 274.56135,92.867352 L 298.73517,164.22283 L 272.70861,164.22283 L 248.41317,92.867352"
       id="path31"
       style="fill:#50b848;fill-opacity:1;fill-rule:nonzero;stroke:none" /><path
       d="M 300.82874,149.20063 L 337.95028,149.20063 L 343.06498,164.22284 L 305.95537,164.22284 L 300.82874,149.20063"
       id="path35"
       style="fill:#4a6571;fill-opacity:1;fill-rule:nonzero;stroke:none" /><path
       d="M 281.59793,92.867352 L 319.11052,92.867352 L 324.22523,107.88956 L 286.72932,107.88956 L 281.59793,92.867352"
       id="path39"
       style="fill:#4a6571;fill-opacity:1;fill-rule:nonzero;stroke:none" /><path
       d="M 291.23837,121.03518 L 326.2115,121.03518 L 331.3262,136.055 L 296.32208,136.055 L 291.23837,121.03518"
       id="path43"
       style="fill:#4a6571;fill-opacity:1;fill-rule:nonzero;stroke:none" /><path
       d="M 194.09478,164.22283 L 168.06821,164.22283 L 143.77278,92.867353 L 169.92095,92.867353 L 194.09478,164.22283"
       id="path47"
       style="fill:#50b848;fill-opacity:1;fill-rule:nonzero;stroke:none" /><path
       d="M 201.06698,92.867352 L 224.23694,92.867352 L 210.16853,129.86728 L 245.29665,164.22283 L 223.21639,164.22283 L 188.15265,130.02943 L 201.06698,92.867352"
       id="path51"
       style="fill:#4a6571;fill-opacity:1;fill-rule:nonzero;stroke:none" /><path
       d="M 351.60617,92.867352 L 377.75673,92.867352 L 401.92817,164.22283 L 375.90161,164.22283 L 351.60617,92.867352"
       id="path55"
       style="fill:#50b848;fill-opacity:1;fill-rule:nonzero;stroke:none" /><path
       d="M 394.85582,122.71385 L 402.56007,122.71385 C 411.58054,122.71385 417.16022,118.97261 415.13818,113.04003 C 413.12091,107.11222 405.72665,105.517 396.70379,105.517 L 388.96855,105.517 L 384.69795,92.864966 L 404.25543,92.864966 C 417.66096,92.864966 422.23916,94.448258 427.62569,98.401721 C 431.28348,101.06995 434.86735,105.65292 436.55317,111.24928 C 439.06879,119.58542 433.87302,127.53526 425.38905,128.93972 L 425.45581,129.13763 C 434.3976,131.41004 441.77041,135.55187 443.45385,145.6406 C 445.2279,156.26821 434.72189,164.22044 422.53006,164.22044 L 408.82409,164.22044 L 404.47719,150.97944 L 412.09559,150.97944 C 420.26004,150.97944 424.43049,147.13566 422.71128,142.09726 C 421.09699,137.35454 414.42761,135.3635 406.86882,135.3635 L 399.1288,135.3635 L 394.85582,122.71385"
       id="path59"
       style="fill:#4a6571;fill-opacity:1;fill-rule:nonzero;stroke:none" /><path
       d="M 506.66395,164.22283 L 480.63738,164.22283 L 456.34195,92.867353 L 482.49012,92.867353 L 506.66395,164.22283"
       id="path63"
       style="fill:#50b848;fill-opacity:1;fill-rule:nonzero;stroke:none" /><path
       d="M 534.63625,162.57754 L 535.92148,162.57754 C 536.57483,162.57754 537.29017,162.44401 537.29017,161.60706 C 537.29017,160.60796 536.50568,160.56266 535.64965,160.56266 L 534.63625,160.56266 L 534.63625,162.57754 z M 533.66338,157.04555 L 534.63625,157.04555 L 534.63625,159.76624 L 535.66158,159.76624 L 537.36171,157.04555 L 538.40849,157.04555 L 536.62013,159.84016 C 537.55008,159.94269 538.26304,160.41959 538.26304,161.56175 C 538.26304,162.77784 537.56439,163.37157 536.07647,163.37157 L 533.66338,163.37157 L 533.66338,157.04555 z M 531.33375,160.23121 C 531.33375,162.82314 533.24848,164.81656 535.74742,164.81656 C 538.22012,164.81656 540.13485,162.82314 540.13485,160.23121 C 540.13485,157.58206 538.22012,155.58148 535.74742,155.58148 C 533.24848,155.58148 531.33375,157.58206 531.33375,160.23121 z M 530.36327,160.23121 C 530.36327,157.11709 532.81928,154.78507 535.74742,154.78507 C 538.66125,154.78507 541.10534,157.11709 541.10534,160.23121 C 541.10534,163.28573 538.66125,165.61536 535.74742,165.61536 C 532.81928,165.61536 530.36327,163.28573 530.36327,160.23121"
       id="path67"
       style="fill:#4a6571;fill-opacity:1;fill-rule:evenodd;stroke:none" /><path
       d="M 507.46752,145.22093 L 515.63197,120.31507 L 498.97163,120.31507 L 493.79731,104.69913 L 520.85874,104.69913 L 524.87659,92.838737 L 548.254,92.838737 L 522.10344,164.19421 L 513.90561,164.19421 L 507.46752,145.22093"
       id="path71"
       style="fill:#4a6571;fill-opacity:1;fill-rule:nonzero;stroke:none" />
       </g></svg>