<?xml version="1.0" encoding="UTF-8" standalone="no"?>
<!-- Created with Inkscape (http://www.inkscape.org/) -->
<!-- http://www.wu.ac.at/it/downloads/it-services-newsletter-10-2009.pdf -->
<svg
   xmlns:svg="http://www.w3.org/2000/svg"
   xmlns="http://www.w3.org/2000/svg"
   version="1.0"
   viewBox="0 -12 180 90"
   width="180"
   height="120">
  <path
     d="M 181.34,2.846 L 182.14,0 L 162.901,0 L 162.117,2.846 L 169.147,2.846 C 169.147,2.846 155.927,41.672 151.171,55.425 C 145.172,72.762 135.019,75.961 127.369,75.961 C 118.482,75.961 113.457,71.505 113.457,63.863 C 113.457,58.752 115.465,53.082 116.774,49.126 C 122.565,31.63 132.66,2.846 132.66,2.846 L 138.906,2.846 L 139.721,0 L 105.609,0 L 104.807,2.846 L 111.854,2.846 L 97.019,44.8 C 94.86,50.932 94.235,54.018 94.322,58.008 L 76.45,2.846 L 83.496,2.846 L 82.712,0 L 48.456,0 L 49.271,2.846 L 55.506,2.846 L 62.3,23.53 L 50.61,57.775 L 28.521,2.846 L 35.582,2.846 L 34.799,0 L 0,0 L 0.786,2.846 L 7.005,2.846 L 38.452,79.772 L 49.089,79.772 L 65.295,32.647 L 80.77,79.772 L 91.406,79.772 L 96.13,67.328 C 100.008,76.815 109.867,81.782 123.581,81.782 C 146.614,81.782 152.577,68.829 158.16,52.748 C 163.089,38.547 175.11,2.846 175.11,2.846 L 181.34,2.846 z"
     style="fill:#121212;fill-opacity:1;fill-rule:nonzero;stroke:none" />
</svg>
