<svg xmlns="http://www.w3.org/2000/svg" width="115" height="115" viewBox="0 0 115 115">
<rect width="100%" height="100%" fill="black" />
<path fill="#FFF" fill-rule="evenodd" d="M91.2840833,0.282625 L87.3252917,0.282625 L73.1824438,28.7431228 L76.1605717,32.5354698 L89.24825,5.92345833 L102.592583,34.7176667 L107.4325,34.7176667 L91.2840833,0.282625 Z M109.716542,34.7083333 L113.966125,34.7083333 L113.966125,0 L109.716542,0 L109.716542,34.7083333 Z M72.149875,0.309166667 L61.8487917,14.1012083 L56.2517083,6.81829167 L60.94725,0.309166667 L72.149875,0.309166667 Z M61.9768922,19.4396049 L73.7793577,34.7013333 L62.4446667,34.7013333 L56.4379996,26.9331597 L61.9768922,19.4396049 Z M47.142375,0.301 L59.8699459,16.795802 L46.608847,34.7095 L34.843375,34.7095 L48.7299167,16.538375 L36.2917917,0.301 L47.142375,0.301 Z M23.0270833,0.309166667 L32.4540417,0.309166667 L32.4540417,34.7176667 L24.107125,34.7176667 L9.42695833,15.834 L9.42695833,34.7095 L0,34.7095 L0,0.301 L8.88679167,0.301 L23.0270833,18.4881667 L23.0270833,0.309166667 L23.0270833,0.309166667 Z" transform="translate(.71 38.3)"/>
</svg>