<svg id="svg" version="1.1" xmlns="http://www.w3.org/2000/svg" xmlns:xlink="http://www.w3.org/1999/xlink" width="400" height="400.5361930294906" viewBox="0, -50, 400,450.5361930294906"><g id="svgg"><path id="path0" d="M80.338 106.831 C 59.317 109.059,41.293 126.166,37.175 147.800 C 36.112 153.384,35.995 202.735,37.031 208.369 C 40.270 225.973,51.709 240.128,68.000 246.690 C 76.227 250.004,80.205 250.400,105.274 250.400 C 116.207 250.400,125.241 250.543,125.349 250.717 C 125.457 250.892,125.675 260.702,125.834 272.517 C 125.993 284.333,126.252 294.000,126.409 294.000 C 126.566 294.000,127.843 293.124,129.247 292.054 C 130.651 290.983,138.550 285.078,146.800 278.931 C 155.050 272.784,166.974 263.895,173.298 259.177 L 184.795 250.600 252.498 250.367 C 323.272 250.124,321.796 250.163,327.800 248.350 C 345.959 242.866,358.585 229.354,363.262 210.400 L 364.200 206.600 364.200 178.200 L 364.200 149.800 363.112 145.600 C 360.824 136.773,357.505 130.296,351.985 123.892 C 343.918 114.531,331.938 108.157,319.916 106.829 C 315.271 106.316,85.180 106.318,80.338 106.831 M109.114 141.632 C 118.236 144.192,123.227 150.026,124.609 159.744 C 125.416 165.423,125.416 190.177,124.609 195.856 C 123.113 206.373,117.438 212.318,106.861 214.447 C 101.055 215.616,91.773 215.004,88.514 213.237 C 88.121 213.024,86.935 212.442,85.877 211.943 C 81.388 209.824,77.357 204.643,75.963 199.200 C 75.142 195.993,75.142 159.607,75.963 156.400 C 79.149 143.955,93.928 137.371,109.114 141.632 M146.729 141.370 C 148.047 142.061,150.087 144.193,150.968 145.800 C 151.330 146.460,152.082 147.810,152.639 148.800 C 153.197 149.790,155.206 153.570,157.105 157.200 C 159.004 160.830,161.697 165.960,163.089 168.600 C 164.482 171.240,166.202 174.559,166.911 175.976 L 168.200 178.552 168.401 161.376 C 168.512 151.929,168.758 143.880,168.948 143.489 C 171.086 139.096,183.111 139.733,184.381 144.307 C 184.955 146.374,184.951 208.441,184.377 210.508 C 183.620 213.232,181.528 214.200,176.394 214.200 C 170.117 214.200,169.466 213.645,164.189 203.800 C 163.363 202.260,161.903 199.611,160.944 197.914 C 159.985 196.217,159.200 194.756,159.200 194.668 C 159.200 194.580,157.850 192.131,156.200 189.226 C 154.550 186.321,153.200 183.866,153.200 183.769 C 153.200 183.673,152.255 181.931,151.100 179.899 L 149.000 176.205 148.800 193.736 L 148.600 211.266 147.321 212.408 C 144.214 215.184,137.065 215.118,134.100 212.285 L 132.800 211.043 132.800 177.611 C 132.800 140.712,132.630 143.135,135.324 141.731 C 138.046 140.313,144.331 140.114,146.729 141.370 M204.653 140.855 C 205.676 141.113,207.054 141.871,207.830 142.602 L 209.200 143.894 209.200 172.147 L 209.200 200.400 221.169 200.400 L 233.139 200.400 234.334 201.405 C 236.569 203.286,237.361 207.412,236.162 210.929 C 234.919 214.577,235.966 214.400,215.672 214.400 C 195.839 214.400,195.206 214.318,193.789 211.579 C 192.912 209.882,192.903 145.335,193.780 143.640 C 195.169 140.952,200.062 139.699,204.653 140.855 M251.989 140.835 C 253.334 141.124,254.486 141.712,255.409 142.582 L 256.800 143.894 256.800 177.174 C 256.800 201.435,256.676 210.685,256.341 211.310 C 254.400 214.937,245.856 215.605,242.279 212.408 L 241.000 211.266 241.000 177.389 L 241.000 143.512 242.374 142.365 C 244.514 140.579,248.120 140.005,251.989 140.835 M279.922 141.700 C 282.444 142.953,283.800 144.857,290.200 156.129 C 293.280 161.553,295.951 165.943,296.135 165.884 C 296.320 165.825,296.969 164.882,297.578 163.788 C 298.186 162.695,299.048 161.170,299.493 160.400 C 302.246 155.635,303.413 153.596,304.299 152.000 C 306.035 148.871,306.170 148.648,307.728 146.317 C 310.543 142.108,312.339 140.958,316.725 140.555 C 321.378 140.128,324.520 141.620,326.048 144.983 C 326.741 146.508,326.783 148.421,326.791 178.672 L 326.800 210.743 325.495 212.126 C 322.671 215.121,315.096 215.292,312.031 212.429 L 310.800 211.279 310.800 192.263 C 310.800 181.804,310.662 173.162,310.493 173.057 C 310.323 172.953,308.239 176.276,305.860 180.441 C 300.715 189.451,300.173 190.145,297.606 190.998 C 293.402 192.394,292.476 191.468,285.839 179.219 L 281.622 171.439 281.511 191.352 L 281.400 211.266 280.116 212.413 C 276.548 215.601,267.903 214.853,265.937 211.186 C 264.833 209.128,264.852 148.564,265.958 145.422 C 267.600 140.757,274.386 138.948,279.922 141.700 M95.600 155.513 C 93.780 156.412,93.227 156.946,92.400 158.600 L 91.400 160.600 91.287 177.383 C 91.136 199.850,91.418 200.600,100.000 200.600 C 105.027 200.600,106.297 199.958,107.842 196.640 L 108.792 194.600 108.796 177.687 L 108.800 160.773 107.843 158.887 C 105.645 154.553,100.444 153.119,95.600 155.513 " stroke="none" fill="#fbfbfb" fill-rule="evenodd"></path><path id="path1" d="M0.000 200.200 L 0.000 400.400 200.000 400.400 L 400.000 400.400 400.000 200.200 L 400.000 0.000 200.000 0.000 L 0.000 0.000 0.000 200.200 M321.400 106.400 C 325.000 107.015,328.976 108.006,330.260 108.609 C 330.954 108.934,331.733 109.200,331.992 109.200 C 334.270 109.200,344.117 115.434,348.730 119.795 C 357.405 127.998,362.173 137.033,364.439 149.561 C 365.222 153.886,364.700 207.353,363.844 210.600 C 360.564 223.042,354.243 233.160,345.691 239.658 C 344.431 240.615,343.310 241.498,343.200 241.620 C 343.006 241.836,340.635 243.329,339.006 244.261 C 337.170 245.312,333.076 247.200,332.635 247.200 C 332.374 247.200,331.989 247.371,331.780 247.579 C 331.420 247.939,329.653 248.487,324.200 249.928 C 322.070 250.491,314.128 250.587,253.600 250.781 C 212.270 250.914,185.164 251.148,184.800 251.375 C 184.053 251.842,169.834 262.420,134.074 289.114 C 129.824 292.286,126.227 294.761,126.080 294.614 C 125.667 294.200,125.277 284.793,125.235 274.200 C 125.215 268.920,125.080 261.508,124.937 257.729 L 124.676 250.857 101.838 250.692 C 76.940 250.512,77.438 250.554,70.073 248.025 C 61.663 245.137,52.194 238.549,47.296 232.177 C 41.538 224.686,38.439 218.177,36.928 210.400 C 36.608 208.750,36.178 206.632,35.973 205.694 C 35.440 203.256,35.489 154.079,36.027 151.024 C 37.486 142.744,38.256 140.132,40.733 135.061 C 48.371 119.423,62.297 109.108,79.600 106.273 C 81.609 105.944,319.461 106.069,321.400 106.400 M93.800 141.470 C 84.583 142.976,78.272 148.840,76.390 157.646 C 75.208 163.177,75.197 192.398,76.375 197.828 C 78.744 208.753,86.771 214.468,99.800 214.508 C 113.213 214.549,121.480 208.788,123.779 197.800 C 124.611 193.822,124.511 160.578,123.656 156.915 C 121.002 145.544,108.486 139.070,93.800 141.470 M136.961 141.453 C 136.500 141.556,135.510 142.151,134.761 142.776 L 133.400 143.912 133.284 176.456 C 133.220 194.355,133.272 209.582,133.401 210.293 C 134.099 214.168,143.663 215.217,147.086 211.794 L 148.400 210.480 148.400 192.840 C 148.400 183.138,148.535 175.201,148.700 175.203 C 148.985 175.205,151.596 179.622,154.136 184.400 C 155.802 187.532,158.763 192.892,159.219 193.600 C 159.431 193.930,159.723 194.470,159.867 194.800 C 160.011 195.130,161.187 197.247,162.479 199.504 C 163.771 201.760,164.957 203.923,165.114 204.309 C 166.102 206.736,169.012 211.267,170.132 212.121 C 174.086 215.137,182.273 214.192,183.798 210.543 C 184.692 208.403,184.705 146.428,183.812 144.290 C 182.292 140.653,173.283 139.917,170.035 143.165 C 169.213 143.987,169.200 144.284,169.200 161.800 C 169.200 171.744,169.045 179.600,168.849 179.600 C 168.204 179.600,168.303 179.773,161.395 166.600 C 160.125 164.180,158.057 160.220,156.799 157.800 C 148.281 141.417,148.320 141.461,141.841 141.341 C 139.618 141.301,137.423 141.351,136.961 141.453 M197.283 141.463 C 196.779 141.571,195.744 142.283,194.983 143.043 L 193.600 144.427 193.600 177.427 C 193.600 213.943,193.434 211.628,196.159 213.120 C 197.265 213.726,199.321 213.812,215.000 213.907 C 234.143 214.022,234.073 214.030,235.153 211.794 C 235.470 211.137,235.881 210.287,236.065 209.905 C 236.957 208.056,235.735 202.938,234.105 201.700 C 233.612 201.325,230.373 201.200,221.166 201.200 C 210.337 201.200,208.857 201.125,208.643 200.567 C 208.509 200.219,208.400 187.268,208.400 171.788 L 208.400 143.641 206.953 142.537 C 205.500 141.429,200.184 140.838,197.283 141.463 M244.915 141.459 C 244.428 141.565,243.483 142.162,242.815 142.786 L 241.600 143.921 241.600 177.525 L 241.600 211.129 242.796 212.135 C 246.319 215.099,254.724 214.146,255.983 210.640 C 256.550 209.062,256.560 145.777,255.994 144.160 C 255.206 141.910,249.367 140.487,244.915 141.459 M270.400 141.489 C 268.999 142.015,267.529 143.371,266.791 144.818 C 265.637 147.080,265.560 210.032,266.709 211.457 C 268.981 214.274,276.578 214.682,279.588 212.149 L 280.800 211.129 280.800 190.764 C 280.800 179.349,280.954 170.400,281.151 170.400 C 281.685 170.400,282.114 171.060,284.400 175.400 C 285.559 177.600,286.642 179.580,286.807 179.800 C 286.972 180.020,288.038 182.000,289.176 184.200 C 292.483 190.592,295.312 192.262,298.824 189.896 C 300.155 188.999,300.763 188.065,307.073 177.232 C 308.793 174.280,310.425 171.790,310.700 171.699 C 311.095 171.568,311.200 175.643,311.200 191.189 L 311.200 210.845 312.487 212.021 C 315.277 214.569,322.745 214.414,325.241 211.756 L 326.200 210.735 326.200 178.655 C 326.200 148.659,326.153 146.470,325.482 144.983 C 324.064 141.837,320.656 140.676,314.941 141.390 C 311.231 141.854,309.424 144.029,302.400 156.488 C 299.210 162.146,296.388 166.781,296.129 166.788 C 295.871 166.794,292.936 162.037,289.609 156.216 C 283.155 144.924,281.222 142.377,278.545 141.634 C 276.946 141.190,271.456 141.092,270.400 141.489 M104.038 154.614 C 109.240 156.449,109.400 157.140,109.400 177.800 L 109.400 195.000 108.400 196.982 C 105.187 203.352,94.876 203.313,91.738 196.920 L 90.600 194.600 90.600 178.000 C 90.600 159.503,90.756 158.349,93.580 156.016 C 95.966 154.045,100.648 153.417,104.038 154.614 " stroke="none" fill="#3caccc" fill-rule="evenodd"></path><path id="path2" d="M83.105 106.283 C 83.602 106.379,84.322 106.375,84.705 106.275 C 85.087 106.175,84.680 106.096,83.800 106.101 C 82.920 106.105,82.607 106.187,83.105 106.283 M315.905 106.283 C 316.402 106.379,317.122 106.375,317.505 106.275 C 317.887 106.175,317.480 106.096,316.600 106.101 C 315.720 106.105,315.407 106.187,315.905 106.283 M50.587 121.300 L 48.200 123.800 50.700 121.413 C 53.022 119.195,53.383 118.800,53.087 118.800 C 53.026 118.800,51.901 119.925,50.587 121.300 M208.989 172.400 C 208.989 187.910,209.039 194.255,209.100 186.500 C 209.161 178.745,209.161 166.055,209.100 158.300 C 209.039 150.545,208.989 156.890,208.989 172.400 M132.991 177.600 C 132.991 195.750,133.040 203.175,133.100 194.100 C 133.160 185.025,133.160 170.175,133.100 161.100 C 133.040 152.025,132.991 159.450,132.991 177.600 M240.991 177.400 C 240.991 195.220,241.040 202.568,241.100 193.730 C 241.160 184.891,241.160 170.311,241.100 161.330 C 241.040 152.348,240.991 159.580,240.991 177.400 M265.791 178.600 C 265.791 196.200,265.840 203.342,265.900 194.470 C 265.960 185.599,265.960 171.199,265.900 162.470 C 265.840 153.742,265.791 161.000,265.791 178.600 M364.589 178.400 C 364.589 192.590,364.639 198.395,364.700 191.300 C 364.761 184.205,364.761 172.595,364.700 165.500 C 364.639 158.405,364.589 164.210,364.589 178.400 M75.382 177.800 C 75.382 186.600,75.435 190.143,75.500 185.673 C 75.564 181.204,75.564 174.004,75.499 169.673 C 75.435 165.343,75.382 169.000,75.382 177.800 M310.985 191.400 C 310.985 201.960,311.037 206.223,311.100 200.872 C 311.163 195.522,311.163 186.882,311.100 181.672 C 311.036 176.463,310.985 180.840,310.985 191.400 M295.300 191.076 C 295.685 191.176,296.315 191.176,296.700 191.076 C 297.085 190.975,296.770 190.893,296.000 190.893 C 295.230 190.893,294.915 190.975,295.300 191.076 M124.493 193.600 C 124.493 194.370,124.575 194.685,124.676 194.300 C 124.776 193.915,124.776 193.285,124.676 192.900 C 124.575 192.515,124.493 192.830,124.493 193.600 M99.100 201.482 C 99.595 201.578,100.405 201.578,100.900 201.482 C 101.395 201.387,100.990 201.309,100.000 201.309 C 99.010 201.309,98.605 201.387,99.100 201.482 M50.000 235.000 C 50.746 235.770,51.447 236.400,51.557 236.400 C 51.667 236.400,51.146 235.770,50.400 235.000 C 49.654 234.230,48.953 233.600,48.843 233.600 C 48.733 233.600,49.254 234.230,50.000 235.000 M91.200 250.689 C 110.248 250.968,125.107 250.973,124.938 250.700 C 124.836 250.535,115.538 250.441,104.276 250.491 C 93.014 250.540,87.130 250.630,91.200 250.689 M217.900 250.700 C 235.995 250.758,265.605 250.758,283.700 250.700 C 301.795 250.642,286.990 250.595,250.800 250.595 C 214.610 250.595,199.805 250.642,217.900 250.700 M125.369 260.200 C 125.370 264.820,125.428 266.655,125.499 264.278 C 125.570 261.901,125.569 258.121,125.498 255.878 C 125.427 253.635,125.369 255.580,125.369 260.200 " stroke="none" fill="#97d1e2" fill-rule="evenodd"></path><path id="path3" d="M321.233 106.543 C 321.325 106.621,322.030 106.801,322.800 106.942 C 323.785 107.123,324.022 107.082,323.600 106.806 C 323.058 106.450,320.837 106.203,321.233 106.543 M332.800 109.800 C 333.350 110.114,333.980 110.372,334.200 110.372 C 334.420 110.372,334.150 110.114,333.600 109.800 C 333.050 109.486,332.420 109.228,332.200 109.228 C 331.980 109.228,332.250 109.486,332.800 109.800 M346.400 117.725 C 346.400 117.794,346.985 118.379,347.700 119.025 L 349.000 120.200 347.825 118.900 C 346.730 117.688,346.400 117.416,346.400 117.725 M350.800 122.125 C 350.800 122.194,351.385 122.779,352.100 123.425 L 353.400 124.600 352.225 123.300 C 351.130 122.088,350.800 121.816,350.800 122.125 M97.900 141.095 C 99.055 141.176,100.945 141.176,102.100 141.095 C 103.255 141.014,102.310 140.948,100.000 140.948 C 97.690 140.948,96.745 141.014,97.900 141.095 M139.491 141.089 C 140.201 141.177,141.461 141.179,142.291 141.092 C 143.121 141.005,142.540 140.933,141.000 140.931 C 139.460 140.929,138.781 141.000,139.491 141.089 M175.507 141.090 C 176.226 141.179,177.306 141.177,177.907 141.086 C 178.508 140.995,177.920 140.922,176.600 140.924 C 175.280 140.926,174.788 141.001,175.507 141.090 M200.307 141.090 C 201.026 141.179,202.106 141.177,202.707 141.086 C 203.308 140.995,202.720 140.922,201.400 140.924 C 200.080 140.926,199.588 141.001,200.307 141.090 M247.700 141.087 C 248.305 141.178,249.295 141.178,249.900 141.087 C 250.505 140.995,250.010 140.920,248.800 140.920 C 247.590 140.920,247.095 140.995,247.700 141.087 M272.700 141.089 C 273.415 141.178,274.585 141.178,275.300 141.089 C 276.015 141.001,275.430 140.928,274.000 140.928 C 272.570 140.928,271.985 141.001,272.700 141.089 M317.107 141.090 C 317.826 141.179,318.906 141.177,319.507 141.086 C 320.108 140.995,319.520 140.922,318.200 140.924 C 316.880 140.926,316.388 141.001,317.107 141.090 M195.292 142.221 C 194.805 142.562,194.213 143.237,193.976 143.721 L 193.546 144.600 194.273 143.712 C 194.673 143.223,195.360 142.554,195.800 142.225 C 196.861 141.430,196.425 141.427,195.292 142.221 M206.000 141.711 C 206.000 141.787,206.585 142.278,207.300 142.801 C 208.104 143.390,208.384 143.487,208.033 143.055 C 207.500 142.399,206.000 141.407,206.000 141.711 M310.477 143.459 L 308.600 145.318 310.600 143.591 C 311.700 142.641,312.675 141.804,312.767 141.732 C 312.858 141.659,312.803 141.600,312.643 141.600 C 312.484 141.600,311.509 142.437,310.477 143.459 M241.384 144.100 C 241.279 144.375,241.240 159.540,241.297 177.800 L 241.400 211.000 241.600 177.300 C 241.710 158.765,241.749 143.600,241.687 143.600 C 241.626 143.600,241.489 143.825,241.384 144.100 M208.496 171.867 C 208.443 187.304,208.509 200.219,208.643 200.567 C 208.858 201.128,210.263 201.190,220.943 201.109 L 233.000 201.018 221.000 200.809 L 209.000 200.600 208.796 172.200 L 208.592 143.800 208.496 171.867 M168.984 162.000 C 168.984 171.790,169.036 175.795,169.100 170.900 C 169.163 166.005,169.163 157.995,169.100 153.100 C 169.036 148.205,168.984 152.210,168.984 162.000 M256.591 177.400 C 256.591 195.220,256.640 202.568,256.700 193.730 C 256.760 184.891,256.760 170.311,256.700 161.330 C 256.640 152.348,256.591 159.580,256.591 177.400 M81.178 147.500 L 79.800 149.000 81.300 147.622 C 82.696 146.338,82.984 146.000,82.678 146.000 C 82.612 146.000,81.937 146.675,81.178 147.500 M118.600 147.600 C 119.459 148.480,120.252 149.200,120.362 149.200 C 120.472 149.200,119.859 148.480,119.000 147.600 C 118.141 146.720,117.348 146.000,117.238 146.000 C 117.128 146.000,117.741 146.720,118.600 147.600 M364.093 148.800 C 364.093 149.570,364.175 149.885,364.276 149.500 C 364.376 149.115,364.376 148.485,364.276 148.100 C 364.175 147.715,364.093 148.030,364.093 148.800 M364.493 151.600 C 364.493 152.370,364.575 152.685,364.676 152.300 C 364.776 151.915,364.776 151.285,364.676 150.900 C 364.575 150.515,364.493 150.830,364.493 151.600 M121.628 151.400 C 121.628 151.620,121.886 152.250,122.200 152.800 C 122.514 153.350,122.772 153.620,122.772 153.400 C 122.772 153.180,122.514 152.550,122.200 152.000 C 121.886 151.450,121.628 151.180,121.628 151.400 M35.717 178.400 C 35.684 192.810,35.779 204.909,35.928 205.286 C 36.176 205.913,36.147 172.494,35.887 158.200 C 35.827 154.900,35.750 163.990,35.717 178.400 M105.724 155.666 C 106.342 156.181,107.213 157.052,107.659 157.601 C 108.105 158.151,108.337 158.330,108.175 158.000 C 107.709 157.049,106.273 155.563,105.400 155.128 C 104.944 154.900,105.083 155.131,105.724 155.666 M123.668 157.400 C 123.662 157.840,123.811 158.560,124.000 159.000 C 124.438 160.019,124.438 158.968,124.000 157.600 C 123.743 156.796,123.677 156.757,123.668 157.400 M75.822 158.622 C 75.672 159.425,75.628 160.162,75.726 160.260 C 75.824 160.357,76.027 159.781,76.178 158.978 C 76.328 158.175,76.372 157.438,76.274 157.340 C 76.176 157.243,75.973 157.819,75.822 158.622 M109.382 177.800 C 109.382 186.600,109.435 190.143,109.500 185.673 C 109.564 181.204,109.564 174.004,109.499 169.673 C 109.435 165.343,109.382 169.000,109.382 177.800 M124.581 177.600 C 124.581 185.850,124.634 189.225,124.699 185.100 C 124.764 180.975,124.764 174.225,124.699 170.100 C 124.634 165.975,124.581 169.350,124.581 177.600 M90.581 177.600 C 90.581 185.630,90.634 188.915,90.699 184.900 C 90.765 180.885,90.765 174.315,90.699 170.300 C 90.634 166.285,90.581 169.570,90.581 177.600 M280.896 190.467 L 280.992 210.600 281.107 190.600 L 281.222 170.600 282.060 171.600 L 282.898 172.600 282.315 171.622 C 280.840 169.149,280.797 169.716,280.896 190.467 M310.111 172.100 C 309.408 173.010,309.128 173.816,309.799 173.000 C 310.160 172.560,310.624 172.245,310.828 172.300 C 311.033 172.355,311.200 172.220,311.200 172.000 C 311.200 171.443,310.575 171.500,310.111 172.100 M291.798 189.137 C 292.234 189.652,292.953 190.259,293.396 190.486 C 294.245 190.921,294.121 190.787,292.203 189.194 C 291.048 188.235,291.034 188.233,291.798 189.137 M106.834 198.953 L 105.869 200.200 107.013 199.112 C 107.643 198.514,108.077 197.953,107.979 197.865 C 107.880 197.777,107.365 198.267,106.834 198.953 M235.667 204.420 C 235.901 205.092,236.167 205.567,236.257 205.476 C 236.456 205.278,235.701 203.200,235.431 203.200 C 235.327 203.200,235.433 203.749,235.667 204.420 M118.581 208.100 L 117.000 209.800 118.700 208.219 C 120.281 206.748,120.584 206.400,120.281 206.400 C 120.216 206.400,119.451 207.165,118.581 208.100 M81.200 208.200 C 81.946 208.970,82.647 209.600,82.757 209.600 C 82.867 209.600,82.346 208.970,81.600 208.200 C 80.854 207.430,80.153 206.800,80.043 206.800 C 79.933 206.800,80.454 207.430,81.200 208.200 M198.472 214.060 C 198.982 214.203,206.870 214.302,216.000 214.280 C 225.130 214.257,231.250 214.187,229.600 214.124 C 222.970 213.869,197.605 213.817,198.472 214.060 M271.763 214.140 C 272.590 214.335,274.032 214.329,275.108 214.125 C 276.857 213.793,276.747 213.767,273.654 213.781 C 270.906 213.793,270.569 213.857,271.763 214.140 M318.800 214.000 C 317.450 214.284,317.443 214.295,318.600 214.300 C 319.260 214.303,320.340 214.168,321.000 214.000 C 322.660 213.578,320.807 213.578,318.800 214.000 M140.100 214.276 C 140.485 214.376,141.115 214.376,141.500 214.276 C 141.885 214.175,141.570 214.093,140.800 214.093 C 140.030 214.093,139.715 214.175,140.100 214.276 M175.700 214.276 C 176.085 214.376,176.715 214.376,177.100 214.276 C 177.485 214.175,177.170 214.093,176.400 214.093 C 175.630 214.093,175.315 214.175,175.700 214.276 M248.100 214.276 C 248.485 214.376,249.115 214.376,249.500 214.276 C 249.885 214.175,249.570 214.093,248.800 214.093 C 248.030 214.093,247.715 214.175,248.100 214.276 M349.389 236.100 L 346.600 239.000 349.500 236.211 C 352.194 233.620,352.583 233.200,352.289 233.200 C 352.228 233.200,350.923 234.505,349.389 236.100 M330.600 247.814 C 329.595 248.298,329.563 248.353,330.400 248.151 C 330.950 248.019,331.571 247.750,331.780 247.555 C 332.298 247.071,332.014 247.133,330.600 247.814 M324.200 249.600 C 323.181 250.038,324.232 250.038,325.600 249.600 C 326.404 249.343,326.443 249.277,325.800 249.268 C 325.360 249.262,324.640 249.411,324.200 249.600 M124.951 255.600 C 124.951 258.130,125.016 259.165,125.096 257.900 C 125.175 256.635,125.175 254.565,125.096 253.300 C 125.016 252.035,124.951 253.070,124.951 255.600 M169.800 262.235 L 168.600 263.266 169.900 262.406 C 170.615 261.933,171.200 261.468,171.200 261.373 C 171.200 261.073,171.031 261.178,169.800 262.235 M125.254 276.233 C 125.284 280.615,125.433 286.360,125.586 289.000 C 125.738 291.640,125.779 288.130,125.676 281.200 C 125.573 274.270,125.424 268.525,125.344 268.433 C 125.265 268.342,125.224 271.852,125.254 276.233 M157.400 271.435 L 156.200 272.466 157.500 271.606 C 158.215 271.133,158.800 270.668,158.800 270.573 C 158.800 270.273,158.631 270.378,157.400 271.435 M151.000 276.235 L 149.800 277.266 151.100 276.406 C 151.815 275.933,152.400 275.468,152.400 275.373 C 152.400 275.073,152.231 275.178,151.000 276.235 M144.600 281.035 L 143.400 282.066 144.700 281.206 C 145.415 280.733,146.000 280.268,146.000 280.173 C 146.000 279.873,145.831 279.978,144.600 281.035 " stroke="none" fill="#6bbcdb" fill-rule="evenodd"></path><path id="path4" d="M142.468 106.300 C 174.075 106.356,225.915 106.356,257.668 106.300 C 289.420 106.243,263.560 106.197,200.200 106.197 C 136.840 106.197,110.860 106.243,142.468 106.300 M81.300 106.676 C 81.685 106.776,82.315 106.776,82.700 106.676 C 83.085 106.575,82.770 106.493,82.000 106.493 C 81.230 106.493,80.915 106.575,81.300 106.676 M348.000 119.800 C 348.746 120.570,349.447 121.200,349.557 121.200 C 349.667 121.200,349.146 120.570,348.400 119.800 C 347.654 119.030,346.953 118.400,346.843 118.400 C 346.733 118.400,347.254 119.030,348.000 119.800 M350.000 121.725 C 350.000 121.794,350.585 122.379,351.300 123.025 L 352.600 124.200 351.425 122.900 C 350.330 121.688,350.000 121.416,350.000 121.725 M98.300 140.693 C 99.235 140.777,100.765 140.777,101.700 140.693 C 102.635 140.609,101.870 140.540,100.000 140.540 C 98.130 140.540,97.365 140.609,98.300 140.693 M139.907 140.690 C 140.626 140.779,141.706 140.777,142.307 140.686 C 142.908 140.595,142.320 140.522,141.000 140.524 C 139.680 140.526,139.188 140.601,139.907 140.690 M175.507 140.690 C 176.226 140.779,177.306 140.777,177.907 140.686 C 178.508 140.595,177.920 140.522,176.600 140.524 C 175.280 140.526,174.788 140.601,175.507 140.690 M200.307 140.690 C 201.026 140.779,202.106 140.777,202.707 140.686 C 203.308 140.595,202.720 140.522,201.400 140.524 C 200.080 140.526,199.588 140.601,200.307 140.690 M247.700 140.687 C 248.305 140.778,249.295 140.778,249.900 140.687 C 250.505 140.595,250.010 140.520,248.800 140.520 C 247.590 140.520,247.095 140.595,247.700 140.687 M272.900 140.687 C 273.505 140.778,274.495 140.778,275.100 140.687 C 275.705 140.595,275.210 140.520,274.000 140.520 C 272.790 140.520,272.295 140.595,272.900 140.687 M317.107 140.690 C 317.826 140.779,318.906 140.777,319.507 140.686 C 320.108 140.595,319.520 140.522,318.200 140.524 C 316.880 140.526,316.388 140.601,317.107 140.690 M312.900 141.212 C 311.515 141.769,311.834 142.014,313.300 141.520 C 314.015 141.279,314.675 141.018,314.767 140.941 C 315.092 140.666,313.786 140.856,312.900 141.212 M309.978 143.500 L 308.600 145.000 310.100 143.622 C 311.496 142.338,311.784 142.000,311.478 142.000 C 311.412 142.000,310.737 142.675,309.978 143.500 M193.391 177.600 C 193.391 195.970,193.440 203.485,193.500 194.300 C 193.560 185.115,193.560 170.085,193.500 160.900 C 193.440 151.715,193.391 159.230,193.391 177.600 M168.309 162.038 C 168.249 171.299,168.335 178.960,168.500 179.062 C 168.665 179.164,168.800 171.587,168.800 162.224 C 168.800 152.861,168.714 145.200,168.609 145.200 C 168.503 145.200,168.368 152.777,168.309 162.038 M184.591 177.400 C 184.591 195.220,184.640 202.568,184.700 193.730 C 184.760 184.891,184.760 170.311,184.700 161.330 C 184.640 152.348,184.591 159.580,184.591 177.400 M326.400 178.680 C 326.290 196.544,326.336 211.024,326.502 210.858 C 326.669 210.691,326.759 196.075,326.702 178.378 L 326.600 146.200 326.400 178.680 M265.390 178.600 C 265.391 195.980,265.440 203.032,265.500 194.270 C 265.560 185.509,265.560 171.289,265.500 162.670 C 265.440 154.052,265.390 161.220,265.390 178.600 M36.188 178.400 C 36.188 192.370,36.239 198.085,36.300 191.100 C 36.361 184.115,36.361 172.685,36.300 165.700 C 36.239 158.715,36.188 164.430,36.188 178.400 M108.982 177.800 C 108.982 186.380,109.035 189.833,109.100 185.474 C 109.164 181.114,109.164 174.094,109.099 169.874 C 109.035 165.653,108.982 169.220,108.982 177.800 M124.981 177.800 C 124.981 186.160,125.034 189.637,125.099 185.526 C 125.164 181.416,125.164 174.576,125.100 170.326 C 125.035 166.077,124.982 169.440,124.981 177.800 M90.980 177.800 C 90.980 185.500,91.034 188.593,91.099 184.674 C 91.165 180.755,91.165 174.455,91.099 170.674 C 91.034 166.893,90.980 170.100,90.980 177.800 M281.383 171.700 C 281.278 171.975,281.239 180.840,281.296 191.400 L 281.400 210.600 281.600 190.900 C 281.710 180.065,281.749 171.200,281.687 171.200 C 281.626 171.200,281.489 171.425,281.383 171.700 M148.496 193.300 L 148.591 211.000 148.700 193.679 C 148.770 182.523,148.948 176.444,149.200 176.600 C 149.422 176.737,149.488 176.573,149.353 176.221 C 148.562 174.159,148.409 177.206,148.496 193.300 M215.100 200.699 C 218.455 200.766,223.945 200.766,227.300 200.699 C 230.655 200.632,227.910 200.578,221.200 200.578 C 214.490 200.578,211.745 200.632,215.100 200.699 M98.500 201.091 C 99.325 201.178,100.675 201.178,101.500 201.091 C 102.325 201.005,101.650 200.934,100.000 200.934 C 98.350 200.934,97.675 201.005,98.500 201.091 M236.520 207.600 C 236.520 208.810,236.595 209.305,236.687 208.700 C 236.778 208.095,236.778 207.105,236.687 206.500 C 236.595 205.895,236.520 206.390,236.520 207.600 M80.783 208.100 C 81.764 209.145,82.619 210.000,82.683 210.000 C 82.984 210.000,82.666 209.641,80.900 207.983 L 79.000 206.200 80.783 208.100 M310.800 210.689 C 310.800 210.921,311.171 211.536,311.624 212.056 L 312.447 213.000 311.745 211.800 C 310.820 210.221,310.800 210.197,310.800 210.689 M88.400 213.031 C 88.400 213.301,90.478 214.056,90.676 213.857 C 90.767 213.767,90.292 213.501,89.620 213.267 C 88.949 213.033,88.400 212.927,88.400 213.031 M97.900 215.095 C 99.055 215.176,100.945 215.176,102.100 215.095 C 103.255 215.014,102.310 214.948,100.000 214.948 C 97.690 214.948,96.745 215.014,97.900 215.095 M349.186 235.900 L 347.000 238.200 349.300 236.014 C 351.437 233.982,351.783 233.600,351.486 233.600 C 351.424 233.600,350.389 234.635,349.186 235.900 M81.500 250.282 C 81.995 250.378,82.805 250.378,83.300 250.282 C 83.795 250.187,83.390 250.109,82.400 250.109 C 81.410 250.109,81.005 250.187,81.500 250.282 M317.705 250.287 C 318.314 250.379,319.214 250.377,319.705 250.282 C 320.197 250.187,319.700 250.111,318.600 250.114 C 317.500 250.117,317.097 250.195,317.705 250.287 M125.768 276.600 C 125.768 281.000,125.826 282.855,125.898 280.721 C 125.970 278.588,125.970 274.988,125.899 272.721 C 125.827 270.455,125.768 272.200,125.768 276.600 " stroke="none" fill="#b7deec" fill-rule="evenodd"></path></g></svg>